<?xml version="1.0" standalone="no"?>
<!DOCTYPE svg PUBLIC "-//W3C//DTD SVG 20010904//EN"
 "http://www.w3.org/TR/2001/REC-SVG-20010904/DTD/svg10.dtd">
<svg version="1.0" xmlns="http://www.w3.org/2000/svg"
 width="656.000000pt" height="656.000000pt" viewBox="0 0 656.000000 656.000000"
 preserveAspectRatio="xMidYMid meet">
<metadata>
Created by potrace 1.11, written by Peter Selinger 2001-2013
</metadata>
<g transform="translate(0.000000,656.000000) scale(0.100000,-0.100000)"
fill="#000000" stroke="none">
<path d="M0 3280 l0 -3280 3280 0 3280 0 0 3280 0 3280 -3280 0 -3280 0 0
-3280z m943 1888 c12 -93 12 -93 -39 -106 -79 -21 -136 -95 -120 -155 34 -138
278 -165 372 -42 37 49 30 108 -18 147 -80 66 -78 62 -78 136 l0 69 266 0
c187 0 267 -3 269 -11 2 -6 5 -38 7 -72 l4 -61 -45 -12 c-64 -17 -121 -77
-121 -126 0 -83 84 -147 194 -148 187 0 271 153 136 248 -49 34 -63 69 -58
138 l3 42 268 1 c189 1 270 -2 272 -10 2 -6 6 -39 8 -73 5 -57 3 -63 -14 -63
-31 0 -114 -47 -132 -74 -22 -34 -21 -94 2 -132 46 -75 192 -102 286 -53 112
57 121 156 20 227 -40 28 -44 35 -50 85 -13 100 -37 92 270 92 l270 -1 3 -72
c2 -63 1 -72 -14 -72 -32 0 -103 -41 -125 -72 -28 -38 -27 -98 1 -138 59 -82
216 -99 311 -34 83 57 78 163 -8 210 -42 22 -53 47 -53 124 l0 59 269 -2 269
-2 6 -35 c3 -19 6 -51 6 -70 0 -34 -2 -36 -46 -48 -79 -21 -136 -95 -120 -156
33 -130 268 -161 367 -48 28 31 31 40 26 81 -5 45 -36 85 -92 117 -16 9 -20
25 -23 86 l-4 75 270 0 c308 0 282 9 282 -94 l0 -51 -41 -7 c-29 -5 -54 -20
-86 -51 -44 -42 -46 -45 -40 -91 14 -124 196 -181 325 -102 38 22 72 74 72
109 0 36 -34 86 -70 105 -38 20 -50 49 -50 124 l0 57 270 1 270 1 0 -52 c0
-28 3 -61 6 -73 5 -18 2 -23 -14 -23 -22 0 -79 -24 -102 -42 -49 -40 -63 -103
-35 -158 34 -66 156 -103 250 -75 141 41 174 163 65 240 -43 30 -45 35 -53 95
-4 35 -6 69 -3 77 4 10 39 12 158 10 84 -1 159 -6 166 -10 10 -7 12 -218 12
-1024 l0 -1017 32 -40 c27 -34 398 -469 568 -666 26 -30 105 -122 176 -205 71
-82 133 -155 139 -161 64 -70 185 -218 185 -226 0 -4 -114 -9 -254 -10 l-253
-3 43 -90 c32 -66 40 -91 31 -97 -6 -4 -92 -8 -191 -8 -141 0 -176 -3 -169
-12 5 -7 17 -46 28 -86 15 -63 16 -75 4 -84 -14 -9 -4747 -4 -4756 6 -5 4 -15
54 -162 781 -44 220 -97 477 -116 570 -20 94 -44 206 -53 250 -15 71 -17 191
-19 1095 -3 852 -1 1017 10 1025 8 6 91 11 184 13 l170 3 6 -53z"/>
<path d="M1250 4061 c-50 -11 -94 -36 -124 -71 l-26 -32 0 -397 0 -397 256
-299 c319 -373 335 -390 404 -418 l55 -22 820 -3 c648 -1 825 1 845 11 17 8
26 22 28 44 3 26 -7 43 -50 95 -30 35 -141 167 -247 293 -107 127 -207 244
-222 260 l-29 31 0 404 c0 384 -1 407 -20 437 -10 18 -34 40 -52 50 -31 17
-83 18 -818 19 -432 1 -801 -1 -820 -5z m1158 -460 c72 -37 83 -76 80 -268
l-3 -158 -77 -3 -78 -3 0 171 c0 157 -2 172 -20 190 -27 27 -89 27 -118 0 -21
-20 -22 -29 -22 -190 l0 -170 -75 0 -75 0 0 175 c0 197 6 222 63 251 56 29 80
33 182 31 81 -3 108 -7 143 -26z m-508 -31 l0 -49 -66 -3 -67 -3 -1 -170 -1
-170 -82 -3 -83 -3 0 176 0 175 -65 0 -65 0 0 50 0 50 215 0 215 0 0 -50z
m357 -560 c51 -80 103 -151 115 -157 49 -27 128 -12 128 24 0 12 -130 223
-156 254 -8 8 -14 19 -14 22 0 4 36 7 80 7 l80 0 90 -137 c94 -145 107 -184
73 -216 -69 -62 -329 -37 -423 42 -31 25 -177 244 -196 294 -6 16 0 18 62 15
l68 -3 93 -145z m-355 -50 l126 -190 -82 0 -82 0 -120 178 c-66 97 -124 183
-128 190 -5 9 12 12 76 12 l83 -1 127 -189z"/>
<path d="M3326 4059 c-53 -13 -104 -45 -120 -77 -11 -21 -15 -112 -17 -422
l-4 -395 290 -338 c317 -369 320 -372 449 -396 40 -7 318 -11 838 -11 679 0
783 2 808 15 61 31 53 44 -245 396 l-275 324 0 394 c0 373 -1 397 -20 436 -11
22 -34 49 -52 60 -32 19 -55 20 -823 22 -460 1 -806 -3 -829 -8z m599 -413
c54 -23 103 -73 115 -116 5 -19 10 -108 10 -197 l0 -163 -95 0 -95 0 0 180 c0
179 0 181 -25 205 -19 20 -34 25 -75 25 l-50 0 0 -205 0 -205 -95 0 -95 0 0
243 c0 134 3 247 8 251 4 5 86 6 182 4 137 -3 184 -8 215 -22z m724 -6 c78
-44 86 -67 89 -282 l4 -188 -91 0 -91 0 0 180 c0 179 0 181 -25 205 -33 34
-87 34 -121 0 l-25 -25 3 -180 3 -180 -93 0 -94 0 4 188 c4 203 11 234 63 268
55 36 98 44 215 41 101 -2 120 -5 159 -27z m-808 -657 l134 -168 45 3 c53 3
75 21 67 54 -4 12 -52 78 -107 145 -55 68 -100 125 -100 128 0 3 39 5 88 5
l87 0 65 -82 c144 -182 170 -219 170 -249 0 -20 -8 -34 -27 -46 -23 -15 -56
-19 -219 -21 l-191 -4 -157 195 c-86 107 -156 198 -156 201 0 3 38 6 84 6 l83
0 134 -167z m678 13 c67 -84 133 -158 147 -165 51 -23 134 -6 134 27 0 4 -41
59 -91 122 -50 63 -100 127 -111 143 l-19 27 80 0 80 0 97 -121 c143 -180 158
-203 150 -232 -20 -83 -330 -64 -477 29 -33 20 -269 300 -269 318 0 3 36 6 79
6 l79 0 121 -154z"/>
</g>
</svg>
